# AST/ASF file generated using VICON BodyLanguage
# -----------------------------------------------
:version 1.10
:name VICON
:units
  mass 1.0
  length 0.45
  angle deg
:documentation
   .ast/.asf automatically generated from VICON data using
   VICON BodyBuilder and BodyLanguage model FoxedUp or BRILLIANT.MOD
:root
   order TX TY TZ RX RY RZ
   axis XYZ
   position 0 0 0  
   orientation 0 0 0 
:bonedata
  begin
     id 1 
     name lhipjoint
     direction 0.714689 -0.624256 0.315473 
     length 2.45343 
     axis 0 0 0  XYZ
  end
  begin
     id 2 
     name lfemur
     direction 0.34202 -0.939693 0  
     length 6.59069  
     axis 0 0 20  XYZ
    dof rx ry rz
    limits (-160.0 20.0)
           (-70.0 70.0)
           (-60.0 70.0)
  end
  begin
     id 3 
     name ltibia
     direction 0.34202 -0.939693 0   
     length 6.73476   
     axis 0 0 20   XYZ
    dof rx
    limits (-10.0 170.0)
  end
  begin
     id 4 
     name lfoot
     direction 0.0718085 -0.197292 0.977711   
     length 1.52607   
     axis -90 7.62852e-016 20   XYZ
    dof rx rz
    limits (-45.0 90.0)
           (-70.0 20.0)
  end
  begin
     id 5 
     name ltoes
     direction 1.53553e-011 -4.22024e-011 1   
     length 0.777832   
     axis -90 7.62852e-016 20   XYZ
    dof rx
    limits (-90.0 20.0)
  end
  begin
     id 6 
     name rhipjoint
     direction -0.727419 -0.612432 0.309497   
     length 2.50079  
     axis 0 0 0  XYZ 
  end
  begin
     id 7 
     name rfemur
     direction -0.34202 -0.939693 0   
     length 6.51665   
     axis 0 0 -20   XYZ
    dof rx ry rz
    limits (-160.0 20.0)
           (-70.0 70.0)
           (-70.0 60.0)
  end
  begin
     id 8 
     name rtibia
     direction -0.34202 -0.939693 0   
     length 6.48919   
     axis 0 0 -20   XYZ
    dof rx
    limits (-10.0 170.0)
 end
 begin
     id 9 
     name rfoot
     direction -0.112205 -0.308282 0.944655   
     length 1.68717  
     axis -90 -7.62852e-016 -20   XYZ
    dof rx rz
    limits (-45.0 90.0)
           (-20.0 70.0)
  end
  begin
     id 10 
     name rtoes
     direction -1.53583e-011 -4.21993e-011 1   
     length 0.846859   
     axis -90 -7.62852e-016 -20   XYZ
    dof rx
    limits (-90.0 20.0)
  end
  begin
     id 11 
     name lowerback
     direction -0.00119603 0.996364 -0.0851956   
     length 1.67242   
     axis 0 0 0   XYZ
    dof rx ry rz
    limits (-20.0 45.0)
           (-30.0 30.0)
           (-30.0 30.0)
  end
  begin
     id 12 
     name upperback
     direction -0.00531001 0.998318 0.0577248   
     length 1.64819   
     axis 0 0 0   XYZ
    dof rx ry rz
    limits (-20.0 45.0)
           (-30.0 30.0)
           (-30.0 30.0)
  end
  begin
     id 13 
     name thorax
     direction -0.00653676 0.995132 0.0983291   
     length 1.67429   
     axis 0 0 0   XYZ
    dof rx ry rz
    limits (-20.0 45.0)
           (-30.0 30.0)
           (-30.0 30.0)
  end
  begin
     id 14 
     name lowerneck
     direction 0.0141424 0.999886 0.00525412   
     length 1.59623   
     axis 0 0 0   XYZ
    dof rx ry rz
    limits (-20.0 45.0)
           (-30.0 30.0)
           (-30.0 30.0)
  end
  begin
     id 15 
     name upperneck
     direction -0.0640064 0.987178 -0.146232   
     length 1.59576   
     axis 0 0 0   XYZ
    dof rx ry rz
    limits (-20.0 45.0)
           (-30.0 30.0)
           (-30.0 30.0)
  end
  begin
     id 16
     name head
     direction -0.0222942 0.998496 -0.0500859  
     length 1.60959  
     axis 0 0 0   XYZ
    dof rx ry rz
    limits (-20.0 45.0)
           (-30.0 30.0)
           (-30.0 30.0)
  end
  begin
     id 17 
     name lclavicle
     direction 0.908549 0.392612 0.142806  
     length 2.80649  
     axis 0 0 0   XYZ
    dof ry rz
    limits (-20.0 10.0)
           (0.0 20.0)
  end
  begin
     id 18 
     name lhumerus
     direction 1 -4.48968e-011 1.08832e-028   
     length 4.2884   
     axis -180 -30 -90   XYZ
    dof rx ry rz
    limits (-60.0 90.0)
           (-90.0 90.0)
           (-90.0 90.0)
  end
  begin
     id 19
     name lradius
     direction 1 -4.48952e-011 -3.02642e-028   
     length 3.06552   
     axis -180 -30 -90   XYZ
    dof rx
    limits (-10.0 170.0)
  end
  begin
     id 20
     name lwrist
     direction 1 -4.49014e-011 1.58672e-027   
     length 1.53276   
     axis -1.65735e-015 90 90   XYZ
    dof ry
    limits (-180.0 0.0)
 end
  begin
     id 21 
     name lhand
     direction 1 -4.48928e-011 3.17344e-027   
     length 0.753045   
     axis -2.02492e-015 90 90   XYZ
    dof rx rz
    limits (-90.0 90.0)
           (-45.0 45.0)
  end
  begin
     id 22 
     name lfingers
     direction 1 -4.48958e-011 6.34687e-027   
     length 0.607124   
     axis -4.04985e-015 90 90   XYZ
    dof rx
    limits (0.0 90.0)
  end
  begin
     id 23
     name lthumb
     direction 0.707107 -6.34905e-011 0.707107   
     length 0.871712   
     axis -90 45 2.85299e-015   XYZ
    dof rx rz
    limits (-45.0 45.0)
           (-45.0 45.0)
  end
  begin
     id 24 
     name rclavicle
     direction -0.885098 0.45949 0.0739604   
     length 2.9478  
     axis 0 0 0   XYZ 
    dof ry rz
    limits (-10.0 20.0)
           (-20.0 0.0)
  end
  begin
     id 25 
     name rhumerus
     direction -1 -4.4898e-011 -2.61739e-027  
     length 4.52172   
     axis -180 30 90   XYZ
    dof rx ry rz
    limits (-90.0 60.0)
           (-90.0 90.0)
           (-90.0 90.0)
  end
  begin
     id 26 
     name rradius
     direction -1 -4.48945e-011 9.02552e-028   
     length 2.8914   
     axis -180 30 90   XYZ
    dof rx
    limits (-10.0 170.0)
  end
  begin
     id 27 
     name rwrist
     direction -1 -4.49018e-011 1.58672e-027   
     length 1.4457   
     axis -1.65735e-015 -90 -90   XYZ
    dof ry
    limits (-180.0 0.0)
  end
  begin
     id 28
     name rhand
     direction -1 -4.48825e-011 3.17344e-027   
     length 0.680541   
     axis -2.02492e-015 -90 -90   XYZ
    dof rx rz
    limits (-90.0 90.0)
           (-45.0 45.0)
  end
  begin
     id 29
     name rfingers
     direction -1 -4.49067e-011 6.34687e-027   
     length 0.54867   
     axis -4.04985e-015 -90 -90   XYZ
    dof rx
    limits (0.0 90.0)
  end
  begin
     id 30
     name rthumb
     direction -0.707107 -6.34833e-011 0.707107   
     length 0.787783   
     axis -90 -45 -2.85299e-015   XYZ
    dof rx rz
    limits (-45.0 45.0)
           (-45.0 45.0)
  end
:hierarchy
  begin
    root lhipjoint rhipjoint lowerback
    lhipjoint lfemur
    lfemur ltibia
    ltibia lfoot
    lfoot ltoes
    rhipjoint rfemur
    rfemur rtibia
    rtibia rfoot
    rfoot rtoes
    lowerback upperback
    upperback thorax
    thorax lowerneck lclavicle rclavicle
    lowerneck upperneck
    upperneck head
    lclavicle lhumerus
    lhumerus lradius
    lradius lwrist
    lwrist lhand lthumb
    lhand lfingers
    rclavicle rhumerus
    rhumerus rradius
    rradius rwrist
    rwrist rhand rthumb
    rhand rfingers
  end

#!OML:ASF E:\emotionWalksFemale\Project 1\Capture day 1\Session 1\Female1.ASF
:FULLY-SPECIFIED
:DEGREES
49
root 8.59707 15.5842 22.3709 184.977 0.244283 -178.954
lowerback 12.4355 0.976707 0.662163
upperback -2.50065 1.38221 -0.323259
thorax -9.66557 0.615671 -1.00512
lowerneck -4.3443 -2.98778 -7.69842
upperneck -6.89046 -3.82615 8.61577
head -1.11544 -2.01883 4.19624
rclavicle 5.75233e-015 4.57205e-015
rhumerus -49.0273 39.5373 -61.1272
rradius 55.2326
rwrist 14.3745
rhand -3.1419 -53.8578
rfingers 7.12502
rthumb 22.5778 -82.5575
lclavicle 5.75233e-015 4.57205e-015
lhumerus -45.3612 -4.43286 30.4335
lradius 39.9118
lwrist -5.41673
lhand 2.69097 -38.3623
lfingers 7.12502
lthumb 28.1652 -10.4581
rfemur -8.33838 13.4722 23.9172
rtibia 17.6425
rfoot -15.7601 -26.9789
rtoes -0.521229
lfemur -13.5588 -16.0735 -19.9294
ltibia 24.328
lfoot -20.2328 14.8908
ltoes -38.5415
50
root 8.60384 15.5819 22.3848 185.127 0.116186 -178.975
lowerback 12.7381 0.977659 0.707484
upperback -2.32886 1.38921 -0.363837
thorax -9.65093 0.615984 -1.08006
lowerneck -4.21367 -3.04141 -7.79298
upperneck -7.59646 -3.91804 8.74362
head -1.35945 -2.08893 4.27829
rclavicle -9.46712e-015 -5.96354e-016
rhumerus -49.1694 40.1502 -60.3286
rradius 55.7956
rwrist 14.0731
rhand -3.45445 -53.5904
rfingers 7.12502
rthumb 22.2778 -82.3262
lclavicle -9.46712e-015 -5.96354e-016
lhumerus -45.003 -4.30748 29.1112
lradius 39.9007
lwrist -5.32502
lhand 2.79685 -38.3119
lfingers 7.12502
lthumb 28.2664 -10.4244
rfemur -8.818 13.1318 23.8849
rtibia 18.1153
rfoot -15.8785 -26.8026
rtoes -0.648493
lfemur -13.9817 -15.7711 -19.866
ltibia 24.6292
lfoot -20.2908 14.6262
ltoes -39.2247
51
root 8.61065 15.5752 22.3993 185.286 -0.0551737 -179.051
lowerback 13.0852 0.91487 0.646648
upperback -2.16819 1.28811 -0.393787
thorax -9.67912 0.567468 -1.06165
lowerneck -4.33935 -3.02954 -7.79939
upperneck -8.06851 -3.91775 8.79646
head -1.49281 -2.10756 4.30734
rclavicle -7.85199e-015 5.76476e-015
rhumerus -48.9881 40.9612 -59.4925
rradius 56.0359
rwrist 13.9607
rhand -3.48117 -53.0604
rfingers 7.12502
rthumb 22.2521 -81.7993
lclavicle -7.85199e-015 5.76476e-015
lhumerus -44.8276 -4.04087 27.6623
lradius 39.8395
lwrist -5.22853
lhand 3.03866 -38.0574
lfingers 7.12502
lthumb 28.4975 -10.2084
rfemur -9.32696 12.7645 23.8054
rtibia 18.5915
rfoot -15.7479 -26.7777
rtoes -1.55502
lfemur -14.4227 -15.5273 -19.8539
ltibia 24.9307
lfoot -20.4595 14.2068
ltoes -39.2996
52
root 8.61865 15.5678 22.4104 185.577 -0.199407 -179.144
lowerback 13.3411 0.837601 0.500395
upperback -2.11202 1.15686 -0.422558
thorax -9.77105 0.510197 -0.986411
lowerneck -4.30969 -2.95765 -7.64395
upperneck -8.51289 -3.84997 8.70051
head -1.65674 -2.09359 4.25564
rclavicle 1.66482e-015 5.1684e-015
rhumerus -48.7732 41.8643 -58.7073
rradius 56.2349
rwrist 13.7514
rhand -3.25146 -52.8936
rfingers 7.12502
rthumb 22.4726 -81.6061
lclavicle 1.66482e-015 5.1684e-015
lhumerus -44.9019 -4.26306 26.2704
lradius 39.9977
lwrist -4.742
lhand 3.49449 -37.1924
lfingers 7.12502
lthumb 28.933 -9.41712
rfemur -9.96716 12.4118 23.6781
rtibia 19.062
rfoot -15.6526 -26.7709
rtoes -3.06954
lfemur -15.0114 -15.2662 -19.8315
ltibia 25.2641
lfoot -20.5169 13.8305
ltoes -39.4853
53
root 8.62649 15.565 22.4217 185.884 -0.323037 -179.164
lowerback 13.6897 0.806575 0.434696
upperback -2.11286 1.10128 -0.449664
thorax -9.9765 0.483973 -0.973219
lowerneck -4.26096 -2.93638 -7.35714
upperneck -8.95063 -3.85822 8.53922
head -1.81815 -2.12078 4.15441
rclavicle -8.19987e-016 -3.18055e-015
rhumerus -48.8536 42.5053 -57.8949
rradius 56.7751
rwrist 13.4454
rhand -2.7439 -53.2742
rfingers 7.12502
rthumb 22.9597 -81.9269
lclavicle -8.19987e-016 -3.18055e-015
lhumerus -45.0216 -4.94622 25.0504
lradius 40.3631
lwrist -3.89694
lhand 3.76032 -36.7949
lfingers 7.12502
lthumb 29.1869 -9.06339
rfemur -10.6118 11.9089 23.619
rtibia 19.5511
rfoot -15.9039 -26.4592
rtoes -3.48359
lfemur -15.6446 -14.9555 -19.7308
ltibia 25.6588
lfoot -20.5703 13.4687
ltoes -39.6054
54
root 8.63261 15.5627 22.4357 186.207 -0.506245 -179.144
lowerback 14.1212 0.753417 0.473485
upperback -2.14282 1.03659 -0.457183
thorax -10.2612 0.44754 -0.997445
lowerneck -4.33553 -2.94704 -7.23939
upperneck -9.26789 -3.89445 8.49594
head -1.91046 -2.15562 4.12255
rclavicle -2.78299e-015 4.37326e-015
rhumerus -49.1504 43.1508 -57.0859
rradius 57.4317
rwrist 13.1003
rhand -2.54447 -53.5241
rfingers 7.12502
rthumb 23.1511 -82.153
lclavicle -2.78299e-015 4.37326e-015
lhumerus -45.1224 -5.31268 23.7769
lradius 40.5787
lwrist -3.43252
lhand 3.58202 -37.4862
lfingers 7.12502
lthumb 29.0166 -9.72533
rfemur -11.2678 11.3352 23.6076
rtibia 20.042
rfoot -16.2369 -26.05
rtoes -3.21002
lfemur -16.3422 -14.5841 -19.5833
ltibia 26.0896
lfoot -20.7569 12.9496
ltoes -39.4987
55
root 8.64011 15.5556 22.4494 186.528 -0.621051 -179.095
lowerback 14.4048 0.717781 0.500513
upperback -2.07836 0.99736 -0.411304
thorax -10.3561 0.427257 -0.958297
lowerneck -4.41657 -2.95856 -7.34315
upperneck -9.71552 -3.93055 8.51622
head -2.04178 -2.18998 4.16115
rclavicle -1.18277e-014 -3.37934e-015
rhumerus -49.0667 43.8735 -56.0807
rradius 57.7394
rwrist 12.6348
rhand -2.98121 -53.2576
rfingers 7.12502
rthumb 22.732 -81.9385
lclavicle -1.18277e-014 -3.37934e-015
lhumerus -45.0694 -5.2782 22.4308
lradius 40.5318
lwrist -3.3218
lhand 3.38748 -38.3389
lfingers 7.12502
lthumb 28.8308 -10.5461
rfemur -11.9505 11.1074 23.6298
rtibia 20.5716
rfoot -16.5325 -25.8942
rtoes -2.9026
lfemur -17.0485 -14.0848 -19.4156
ltibia 26.5562
lfoot -21.1049 12.3871
ltoes -39.6881
56
root 8.65028 15.5479 22.4634 186.83 -0.708635 -179.006
lowerback 14.5951 0.731733 0.51974
upperback -1.94391 1.02278 -0.349738
thorax -10.3179 0.439484 -0.909766
lowerneck -4.48337 -2.99648 -7.41066
upperneck -10.1885 -4.00781 8.50573
head -2.18232 -2.24664 4.18286
rclavicle 6.53505e-015 4.96962e-015
rhumerus -48.8034 44.339 -54.8736
rradius 57.9279
rwrist 12.291
rhand -3.2852 -52.808
rfingers 7.12502
rthumb 22.4402 -81.5244
lclavicle 6.53505e-015 4.96962e-015
lhumerus -44.8766 -5.32164 21.1365
lradius 40.5286
lwrist -3.13441
lhand 3.28702 -38.2881
lfingers 7.12502
lthumb 28.7348 -10.4791
rfemur -12.6749 10.9196 23.7196
rtibia 21.208
rfoot -16.9298 -25.7992
rtoes -2.70965
lfemur -17.7693 -13.5581 -19.2071
ltibia 27.1173
lfoot -21.4602 11.9002
ltoes -40.0533
57
root 8.66062 15.5382 22.481 187.179 -0.887842 -179.008
lowerback 14.9035 0.726514 0.526665
upperback -1.87584 1.01589 -0.341646
thorax -10.4217 0.433927 -0.907674
lowerneck -4.53955 -3.03455 -7.49569
upperneck -10.5528 -4.07793 8.52629
head -2.28838 -2.29533 4.21659
rclavicle -5.19325e-015 -5.96354e-016
rhumerus -48.7654 44.7325 -53.6903
rradius 58.3047
rwrist 11.9734
rhand -2.78463 -52.6351
rfingers 7.12502
rthumb 22.9206 -81.2927
lclavicle -5.19325e-015 -5.96354e-016
lhumerus -44.7023 -5.31451 19.7915
lradius 40.6086
lwrist -3.07509
lhand 3.43557 -37.9035
lfingers 7.12502
lthumb 28.8767 -10.1186
rfemur -13.522 10.4486 23.7237
rtibia 21.9166
rfoot -17.2261 -25.6461
rtoes -3.49768
lfemur -18.6101 -13.0655 -19.0856
ltibia 27.7559
lfoot -21.6519 11.4928
ltoes -40.508
58
root 8.67003 15.5235 22.4986 187.525 -1.00531 -179.036
lowerback 15.3683 0.719546 0.532269
upperback -1.84053 1.00987 -0.306567
thorax -10.6532 0.428558 -0.878748
lowerneck -4.65951 -3.07426 -7.71492
upperneck -10.9591 -4.15185 8.52899
head -2.3961 -2.34257 4.27028
rclavicle 1.54307e-014 -4.57205e-015
rhumerus -48.8284 45.3271 -52.4635
rradius 58.873
rwrist 11.2121
rhand -2.28985 -52.5061
rfingers 7.12502
rthumb 23.3954 -81.104
lclavicle 1.54307e-014 -4.57205e-015
lhumerus -44.6463 -5.34147 18.4918
lradius 40.6668
lwrist -3.04394
lhand 3.65818 -37.7938
lfingers 7.12502
lthumb 29.0893 -10.0454
rfemur -14.3825 9.97541 23.6914
rtibia 22.6372
rfoot -17.364 -25.4839
rtoes -4.77019
lfemur -19.4652 -12.5411 -19.0173
ltibia 28.4395
lfoot -21.9524 11.1231
ltoes -40.907
